<svg width="20" height="21" viewBox="0 0 20 21" fill="none" xmlns="http://www.w3.org/2000/svg">
<g clip-path="url(#clip0_91_906)">
<path d="M19.299 2.66986C19.2609 2.59008 19.1926 2.52868 19.1093 2.49911L12.195 0.0581985C12.0215 -0.00317634 11.831 0.0879901 11.7697 0.26149L10.199 4.70581H9.51204V3.57248C9.51202 3.41941 9.47686 3.26838 9.40926 3.13104C9.34166 2.9937 9.24343 2.87372 9.12214 2.78033C9.00085 2.68695 8.85974 2.62266 8.70968 2.59242C8.55962 2.56217 8.40462 2.56679 8.25663 2.6059L0.24744 4.7169V4.7229C0.176847 4.74064 0.114146 4.78133 0.0691834 4.83857C0.0242205 4.89581 -0.000457842 4.96636 -0.000976562 5.03915L-0.000976562 19.0391C-0.000976562 19.5914 0.446773 20.0391 0.999021 20.0391H10.3323C10.8846 20.0391 11.3323 19.5914 11.3323 19.0391V16.0145L14.0057 16.9582C14.1793 17.0194 14.3697 16.9285 14.431 16.7548L19.3133 2.92457C19.3278 2.88326 19.334 2.83949 19.3315 2.79578C19.329 2.75208 19.318 2.70928 19.2989 2.66986H19.299ZM8.42671 3.24873C8.47605 3.23573 8.52772 3.23421 8.57773 3.24429C8.62775 3.25436 8.6748 3.27577 8.71525 3.30686C8.75572 3.33802 8.78849 3.37806 8.81104 3.42389C8.83359 3.46972 8.84531 3.52012 8.8453 3.57119V4.70581H2.90268L8.42671 3.24873ZM10.6657 19.0391C10.6657 19.1275 10.6305 19.2123 10.568 19.2748C10.5055 19.3373 10.4207 19.3724 10.3323 19.3724H0.999021C0.910616 19.3724 0.825832 19.3373 0.76332 19.2748C0.700808 19.2123 0.665689 19.1275 0.665689 19.0391V5.37248H10.3323C10.4207 5.37248 10.5055 5.4076 10.568 5.47011C10.6305 5.53262 10.6657 5.61741 10.6657 5.70581V19.0391ZM13.4057 6.64152L13.8323 6.43923L14.0356 6.86452L12.416 11.4481C12.3867 11.5315 12.3916 11.6231 12.4297 11.7029L12.7767 12.4288L12.6694 12.7331L12.0083 12.0485C11.9725 12.0112 11.9284 11.9827 11.8796 11.9653C11.8309 11.9479 11.7787 11.9422 11.7273 11.9485L11.3323 11.9985V11.5518L11.6167 11.4158C11.6964 11.3776 11.7578 11.3095 11.7874 11.2262L12.4541 9.34089L13.4057 6.64152ZM14.0343 8.86643L14.7111 9.95384L14.5953 10.2815L13.7856 9.57251L14.0343 8.86643ZM11.3323 10.5121V9.5961L11.6603 9.58243L11.3323 10.5121ZM11.8991 8.90551L11.3323 8.9288V8.4851L12.1484 8.20043L11.8991 8.90551ZM13.9131 16.2185L11.3323 15.3075V12.6704L11.6447 12.6314L12.5657 13.5842C12.597 13.616 12.6343 13.6413 12.6755 13.6585C12.7168 13.6756 12.761 13.6843 12.8056 13.6841C12.8294 13.6842 12.8531 13.6817 12.8763 13.6765C12.9318 13.6644 12.9833 13.6383 13.0259 13.6008C13.0685 13.5632 13.1007 13.5154 13.1196 13.4618L13.453 12.5188C13.4824 12.4354 13.4775 12.3438 13.4392 12.2642L13.0907 11.5391L13.5467 10.2475L14.526 11.1059C14.5868 11.1592 14.6649 11.1885 14.7458 11.1885C14.7742 11.1885 14.8026 11.1848 14.8301 11.1775C14.8827 11.1637 14.9312 11.1372 14.9713 11.1004C15.0114 11.0636 15.0419 11.0175 15.0601 10.9662L15.3934 10.0232C15.41 9.97606 15.4159 9.92579 15.4104 9.87612C15.405 9.82644 15.3884 9.77863 15.362 9.73622L14.3187 8.06014L14.7093 6.95389C14.7239 6.91256 14.7302 6.86876 14.7279 6.82499C14.7255 6.78122 14.7146 6.73834 14.6957 6.69881L14.2891 5.84856C14.2702 5.80904 14.2437 5.77363 14.2112 5.74435C14.1786 5.71507 14.1406 5.69249 14.0993 5.67791C14.058 5.66332 14.0142 5.65701 13.9705 5.65934C13.9268 5.66167 13.8839 5.67259 13.8444 5.69148L12.9937 6.09823C12.9542 6.11709 12.9189 6.14354 12.8897 6.17607C12.8605 6.2086 12.8379 6.24657 12.8234 6.28781L12.4323 7.39543L11.3323 7.77914V5.70581C11.3319 5.53523 11.2878 5.36759 11.2041 5.21895C11.1204 5.07031 11 4.94564 10.8543 4.85685L11.3991 3.31211L11.5213 2.96557L12.2881 0.798905L18.5743 3.01782L13.9131 16.2185Z" fill="#32295A"/>
<path d="M16.5429 5.12938L16.7648 4.50063L17.3364 4.7023L17.1145 5.33105L16.5429 5.12938ZM11.971 3.51526L12.193 2.88672L12.7644 3.08851L12.5424 3.71709L11.971 3.51526ZM15.3998 4.72588L15.6219 4.09713L16.1933 4.29897L15.9713 4.92755L15.3998 4.72588ZM13.1141 3.91892L13.3361 3.29034L13.9073 3.49218L13.6854 4.12076L13.1141 3.91892ZM14.2569 4.32209L14.479 3.69351L15.0504 3.89534L14.8284 4.52388L14.2569 4.32209ZM5.51204 6.707C3.67104 6.707 2.17871 8.19933 2.17871 10.0403C2.17871 11.8813 3.67104 13.3737 5.51204 13.3737C7.35303 13.3737 8.84536 11.8813 8.84536 10.0403C8.84341 8.20033 7.3522 6.70909 5.51204 6.707ZM7.91907 8.90066L7.46432 8.80075C7.26433 8.75662 7.06424 8.72166 6.86224 8.69137C6.832 8.48959 6.79548 8.2888 6.75274 8.08929L6.65262 7.63471C7.20754 7.89885 7.65471 8.34585 7.91907 8.90066ZM2.84533 10.0403C2.846 9.90408 2.85708 9.76804 2.87871 9.63341L3.70296 9.45C3.82942 9.422 3.95671 9.39875 4.08429 9.37675C4.05206 9.8186 4.05206 10.2622 4.08429 10.7041C3.95667 10.6821 3.82942 10.6587 3.70296 10.6307L2.87871 10.4474C2.85711 10.3128 2.84597 10.1767 2.84538 10.0403H2.84533ZM4.76075 9.28937C5.26039 9.24478 5.76302 9.24478 6.26266 9.28937C6.30742 9.78901 6.30742 10.2916 6.26266 10.7913C5.76301 10.836 5.26036 10.836 4.76071 10.7913C4.71595 10.2916 4.71599 9.78901 4.76075 9.28937ZM6.93828 9.37675C7.06603 9.39875 7.19333 9.422 7.31962 9.45L8.14399 9.63341C8.19022 9.90278 8.19022 10.178 8.14399 10.4474L7.31962 10.6307C7.19337 10.6587 7.06603 10.6821 6.93828 10.7044C6.97067 10.2624 6.97067 9.81871 6.93828 9.37675ZM5.91874 7.40704L6.10204 8.23175C6.13004 8.35804 6.15362 8.48533 6.17579 8.61308C5.73377 8.58069 5.28997 8.58069 4.84796 8.61308C4.87008 8.48533 4.89337 8.35804 4.92171 8.23175L5.10495 7.40704C5.37429 7.36131 5.64941 7.36131 5.91874 7.40704ZM4.37208 7.63229L4.27196 8.08704C4.228 8.28704 4.193 8.48712 4.16275 8.68912C3.96097 8.71926 3.76018 8.75566 3.56067 8.79829L3.10592 8.89841C3.37048 8.34408 3.81748 7.89749 4.37204 7.63342L4.37208 7.63229ZM3.10525 11.179L3.56 11.2791C3.76 11.323 3.95987 11.358 4.16208 11.3883C4.19222 11.5901 4.22862 11.7909 4.27125 11.9904L4.37137 12.4449C3.81652 12.1811 3.36926 11.7344 3.10458 11.18L3.10525 11.179ZM5.10525 12.6717L4.92196 11.8469C4.89362 11.721 4.87037 11.5934 4.84821 11.466C5.06895 11.4821 5.29062 11.493 5.51229 11.493C5.73395 11.493 5.95499 11.4821 6.17604 11.466C6.15391 11.5934 6.13029 11.721 6.10229 11.8469L5.91904 12.6717C5.6497 12.7174 5.37458 12.7174 5.10525 12.6717ZM6.65191 12.4464L6.75203 11.9917C6.79633 11.7917 6.83099 11.5917 6.86162 11.3896C7.06336 11.3594 7.26413 11.323 7.46362 11.2804L7.9182 11.1803C7.65407 11.7356 7.20681 12.183 6.65162 12.4474L6.65191 12.4464ZM2.84538 16.0403H8.1787V16.707H2.84538V16.0403ZM3.51204 17.3736H7.51203V18.0403H3.51204V17.3736ZM5.1787 14.707H5.84537V15.3737H5.1787V14.707ZM3.84537 14.707H4.51204V15.3737H3.84537V14.707ZM6.51203 14.707H7.1787V15.3737H6.51203V14.707Z" fill="#32295A"/>
</g>
<defs>
<clipPath id="clip0_91_906">
<rect width="20" height="20" fill="white" transform="translate(-0.000976562 0.0390625)"/>
</clipPath>
</defs>
</svg>
