<svg width="49" height="50" viewBox="0 0 49 50" fill="none" xmlns="http://www.w3.org/2000/svg">
<path fill-rule="evenodd" clip-rule="evenodd" d="M27.0955 14.5335H19.9033L33.4746 27.8683V21.2907C33.4746 14.5045 33.6019 14.5335 27.0955 14.5335Z" fill="#00CCF0"/>
<path fill-rule="evenodd" clip-rule="evenodd" d="M33.0144 9.68458C34.0565 9.68458 34.9494 9.8079 35.6946 10.0533C36.3718 10.2785 36.9479 10.6137 37.4177 11.0556L37.4336 11.0629C37.8828 11.4766 38.2208 11.983 38.4488 12.5712C38.5981 12.9588 38.7 13.3987 38.7588 13.8862V21.0865C38.7588 22.4454 38.7449 23.5325 38.7449 25.0135C38.7449 27.2922 38.3955 29.3563 37.6997 31.1969C37.0114 33.0179 35.9748 34.6505 34.5965 36.0878C33.2124 37.5231 31.6555 38.5981 29.9306 39.3088C28.1992 40.0223 26.2604 40.3789 24.1171 40.3789C21.9729 40.3789 20.0341 40.0223 18.3027 39.3088C16.5758 38.5981 15.0199 37.5231 13.637 36.0878C12.2584 34.6505 11.2228 33.0189 10.5336 31.1969C9.83773 29.3563 9.48843 27.2922 9.48843 25.0135C9.48843 22.7274 9.83773 20.6578 10.5318 18.8144C11.2191 16.9866 12.2547 15.3477 13.6322 13.9058C14.9995 12.4751 16.5488 11.4029 18.2727 10.6932C21.8748 9.21295 29.0837 9.68458 33.0144 9.68458ZM48.1239 14.4688H48.1296L48.1239 14.185C48.1239 12.0155 47.97 11.1134 47.1153 8.9542C46.4206 7.19576 45.3783 5.68177 43.9971 4.41641H43.9896C42.6206 3.16972 41.0077 2.23579 39.1512 1.61939C37.3458 1.01987 35.3267 0.718224 33.0928 0.718224C30.1193 0.718224 27.129 0.7079 24.1302 0.68546C20.7037 0.68546 17.5453 1.26254 14.6557 2.4159C11.7523 3.57502 9.15521 5.30824 6.86616 7.61218C4.57532 9.91712 2.856 12.532 1.70999 15.4494C0.570725 18.3549 0 21.5441 0 25.0135C0 28.4914 0.570725 31.6844 1.70919 34.5879C2.85322 37.5072 4.56976 40.1174 6.85305 42.415C9.12999 44.7066 11.7253 46.4335 14.6305 47.5878C17.5238 48.7374 20.6926 49.3145 24.1302 49.3145C27.5613 49.3145 30.7208 48.7374 33.6 47.5888C36.4969 46.4325 39.0828 44.7031 41.3494 42.4075C43.6113 40.1166 45.3157 37.5055 46.455 34.5806C47.5869 31.6751 48.1548 28.4849 48.1548 25.0135C48.1548 21.5002 48.1239 17.9841 48.1239 14.4688Z" fill="#00CCF0"/>
</svg>
